<?xml version="1.0" standalone="no"?>
<!DOCTYPE svg PUBLIC "-//W3C//DTD SVG 20010904//EN"
 "http://www.w3.org/TR/2001/REC-SVG-20010904/DTD/svg10.dtd">
<svg version="1.0" xmlns="http://www.w3.org/2000/svg"
 width="900.000000pt" height="915.000000pt" viewBox="0 0 900.000000 915.000000"
 preserveAspectRatio="xMidYMid meet">
<metadata>
Created by potrace 1.10, written by Peter Selinger 2001-2011
</metadata>
<g transform="translate(0.000000,915.000000) scale(0.100000,-0.100000)"
fill="#000000" stroke="none">
<path d="M410 9132 c0 -19 22 -52 53 -80 9 -9 17 -24 17 -34 0 -9 6 -21 13
-25 7 -4 21 -27 31 -50 10 -23 25 -44 32 -47 8 -3 14 -15 14 -26 0 -11 4 -20
9 -20 5 0 14 -13 20 -30 5 -16 15 -30 20 -30 6 0 11 -7 11 -15 0 -7 6 -18 14
-22 8 -4 15 -17 17 -27 2 -11 10 -21 17 -24 16 -5 16 35 -1 45 -7 4 -22 26
-33 48 -11 22 -32 59 -47 82 -15 24 -27 47 -27 52 0 5 -13 22 -28 38 -28 29
-82 138 -82 167 0 10 -9 16 -25 16 -17 0 -25 -5 -25 -18z"/>
<path d="M720 9140 c0 -16 46 -85 84 -126 84 -91 104 -118 176 -244 30 -52 85
-144 122 -203 37 -59 68 -110 68 -113 0 -3 18 -33 41 -66 22 -34 50 -80 61
-102 11 -23 33 -57 48 -76 15 -19 33 -48 42 -65 28 -57 81 -150 94 -165 7 -8
22 -35 34 -60 11 -25 41 -79 65 -120 35 -58 45 -85 45 -119 0 -74 -24 -136
-76 -195 -39 -46 -58 -43 -96 13 -13 19 -29 36 -35 39 -22 7 -14 -28 13 -63
14 -19 35 -62 45 -96 l19 -62 -42 -46 c-23 -25 -48 -50 -54 -56 -6 -5 -17 -27
-24 -48 -8 -24 -22 -43 -41 -52 -19 -10 -29 -23 -29 -39 0 -51 -37 -40 -70 20
-14 24 -28 44 -31 44 -4 0 -10 10 -13 23 -9 33 -42 71 -55 63 -8 -5 -4 -20 15
-49 14 -23 30 -54 36 -69 5 -16 13 -28 18 -28 4 0 10 -8 14 -17 3 -10 10 -25
14 -33 31 -50 39 -160 12 -160 -5 0 -12 -9 -15 -21 -5 -15 -10 -17 -20 -9 -10
8 -18 2 -34 -25 -11 -20 -21 -40 -21 -44 0 -4 -16 -30 -35 -57 -19 -27 -35
-53 -35 -58 0 -5 -11 -24 -25 -42 -13 -17 -43 -67 -65 -111 -46 -88 -95 -153
-152 -200 -35 -29 -45 -32 -135 -38 -132 -8 -155 -14 -160 -36 -3 -10 -14 -19
-24 -19 -10 0 -30 -5 -46 -12 -24 -10 -5 -13 132 -19 146 -6 163 -5 191 12 17
10 40 19 52 19 27 0 104 75 132 128 12 23 26 42 30 42 4 0 13 12 19 28 6 15
25 50 41 77 17 28 36 61 43 75 6 14 16 30 22 37 5 7 16 19 23 27 6 8 12 22 12
30 0 9 9 20 20 26 11 6 20 19 20 30 0 10 5 22 11 25 5 4 15 17 20 28 5 12 18
36 28 52 11 17 30 50 42 75 13 25 36 63 51 84 15 21 28 45 28 52 0 7 3 14 8
16 7 3 71 106 86 138 10 22 28 52 53 86 12 17 27 42 33 55 12 26 21 42 63 106
15 24 27 45 27 47 0 3 15 27 32 53 31 45 33 52 32 140 0 68 -5 97 -16 110 -8
10 -18 25 -22 33 -3 8 -15 29 -26 45 -11 17 -24 39 -30 50 -6 11 -19 34 -30
50 -11 17 -24 39 -30 50 -6 11 -19 34 -30 50 -11 17 -24 39 -30 50 -6 11 -19
34 -30 50 -11 17 -24 39 -30 50 -6 11 -18 32 -28 47 -9 14 -39 64 -67 109 -71
119 -73 122 -85 144 -13 24 -26 46 -61 100 -14 22 -29 47 -32 55 -4 8 -16 29
-27 45 -11 17 -24 39 -30 50 -12 23 -25 44 -61 100 -14 22 -29 47 -32 55 -4 8
-16 29 -27 45 -11 17 -24 39 -29 51 -12 26 -76 83 -108 95 -13 5 -38 9 -54 9
-22 0 -29 5 -29 20 0 13 -7 20 -20 20 -11 0 -20 -5 -20 -10z"/>
<path d="M23 9102 c-18 -3 -23 -10 -23 -33 0 -16 5 -29 10 -29 6 0 10 -9 10
-20 0 -24 31 -85 82 -163 21 -32 38 -61 38 -64 0 -6 73 -126 81 -133 3 -3 9
-12 12 -20 4 -8 16 -28 27 -45 11 -16 24 -39 30 -50 6 -11 19 -33 30 -50 11
-16 24 -39 30 -50 6 -11 19 -33 30 -50 11 -16 24 -39 30 -50 6 -11 19 -33 30
-50 11 -16 24 -39 30 -50 6 -11 19 -33 30 -50 11 -16 24 -39 30 -50 6 -11 19
-33 30 -50 11 -16 24 -39 30 -50 6 -11 19 -33 30 -50 11 -16 24 -39 30 -50 6
-11 19 -33 30 -50 11 -16 24 -39 30 -50 6 -11 22 -40 35 -64 21 -36 25 -58 25
-120 l0 -77 -68 -113 c-37 -62 -75 -127 -86 -144 -38 -66 -252 -419 -268 -445
-10 -15 -22 -36 -28 -47 -5 -11 -14 -27 -20 -35 -5 -8 -61 -100 -123 -205
-187 -315 -204 -362 -142 -395 25 -13 61 -15 208 -12 103 2 175 7 172 12 -10
17 41 110 220 404 66 108 131 216 144 239 13 23 36 60 50 82 14 22 34 56 44
75 11 19 32 54 48 78 16 24 29 45 29 49 0 3 14 25 30 50 17 24 30 48 30 52 0
5 7 14 15 21 18 15 20 56 2 67 -12 8 -56 71 -88 128 -58 101 -90 180 -105 256
-9 46 -18 97 -21 113 -3 16 -16 45 -29 64 -13 19 -24 45 -24 58 0 13 -6 27
-14 31 -8 4 -24 28 -37 53 -12 25 -30 54 -40 65 -9 11 -29 44 -44 73 -15 28
-31 52 -35 52 -5 0 -12 10 -16 23 -4 12 -19 40 -33 62 -14 22 -40 66 -56 98
-17 32 -38 63 -47 68 -10 5 -18 16 -18 24 0 8 -15 38 -34 67 -18 29 -45 76
-60 103 -14 28 -45 78 -69 112 -23 34 -58 88 -77 119 -19 31 -51 78 -71 104
-20 25 -40 61 -44 78 -8 36 -11 39 -42 34z m873 -1702 c52 -69 65 -139 33
-171 -11 -11 -36 -51 -55 -87 -19 -37 -43 -76 -53 -87 -10 -11 -27 -36 -36
-55 -10 -19 -33 -56 -51 -81 -19 -26 -34 -51 -34 -55 0 -5 -28 -54 -61 -109
-34 -55 -75 -125 -91 -155 -17 -30 -36 -62 -43 -70 -7 -8 -20 -29 -29 -47 -8
-17 -24 -39 -33 -49 -10 -9 -27 -36 -39 -58 -27 -54 -79 -81 -155 -80 -73 1
-109 11 -109 29 0 8 13 36 30 62 16 26 30 52 30 58 0 7 9 20 19 29 11 10 27
34 37 54 9 21 36 68 60 105 24 37 44 70 44 73 0 5 71 128 100 174 6 8 19 33
31 54 11 21 42 72 67 112 50 77 72 113 112 182 14 23 52 85 84 138 70 113 80
115 142 34z"/>
<path d="M690 8681 c0 -5 7 -14 15 -21 8 -7 15 -20 15 -30 0 -10 7 -20 15 -24
21 -8 19 7 -5 37 -11 14 -20 30 -20 36 0 6 -4 11 -10 11 -5 0 -10 -4 -10 -9z"/>
<path d="M2185 8072 c-78 -27 -116 -51 -165 -103 -90 -95 -118 -241 -82 -419
16 -78 75 -165 141 -207 89 -56 228 -76 344 -49 38 9 80 16 95 16 15 0 38 6
51 13 l25 12 0 213 1 212 -165 -2 -165 -3 -3 -71 c-4 -89 5 -99 73 -84 27 6
52 7 56 3 10 -11 14 -131 5 -141 -4 -4 -39 -6 -77 -5 -77 2 -113 22 -152 83
-19 31 -22 49 -22 145 0 105 1 112 29 150 51 71 69 79 168 78 64 0 95 -5 114
-17 36 -25 67 -17 78 19 4 17 14 41 21 55 25 48 22 90 -5 90 -10 0 -45 7 -77
15 -77 20 -224 18 -288 -3z"/>
<path d="M2674 8078 c-8 -13 -5 -771 3 -779 4 -4 94 -4 199 1 184 8 193 10
257 40 74 35 128 89 159 158 31 70 38 299 12 373 -31 86 -150 189 -218 189
-13 0 -36 4 -52 9 -37 12 -353 20 -360 9z m367 -194 c64 -40 74 -65 74 -189 0
-114 -7 -136 -56 -186 -23 -23 -112 -51 -150 -47 l-32 3 -1 222 c-1 190 1 223
14 226 33 8 117 -8 151 -29z"/>
<path d="M3675 8085 c-5 -1 -30 -9 -55 -16 -92 -27 -175 -96 -213 -177 -20
-43 -22 -63 -22 -214 0 -120 3 -170 13 -180 6 -6 12 -19 12 -28 0 -22 85 -116
123 -135 53 -28 159 -55 212 -55 49 0 183 21 258 41 l37 10 0 215 0 214 -167
-2 -168 -3 -1 -72 c0 -40 3 -78 7 -84 5 -8 20 -8 59 0 36 8 57 8 63 2 6 -6 11
-38 12 -72 2 -72 -6 -78 -98 -72 -127 8 -185 115 -163 297 7 49 14 63 55 108
l48 52 87 0 c61 -1 98 -6 127 -19 48 -22 70 -13 80 31 4 16 14 43 23 59 19 36
21 64 4 69 -77 22 -171 36 -239 35 -46 0 -88 -2 -94 -4z"/>
<path d="M4432 8067 c-29 -12 -66 -33 -83 -47 -65 -54 -88 -170 -49 -255 17
-37 102 -125 122 -125 13 0 143 -63 171 -82 48 -34 27 -91 -39 -104 -52 -10
-189 23 -227 55 -9 7 -24 11 -34 9 -16 -3 -18 -13 -15 -93 2 -50 8 -94 12 -99
5 -4 26 -12 47 -17 21 -4 56 -12 78 -18 121 -32 291 13 347 91 49 70 60 151
32 237 -19 59 -60 99 -139 135 -166 77 -180 88 -169 130 13 52 114 55 218 5
45 -21 58 -16 76 34 6 18 18 46 27 64 19 40 12 61 -24 68 -15 3 -51 12 -79 20
-78 23 -208 19 -272 -8z"/>
<path d="M6405 8083 c-11 -3 -24 -9 -29 -14 -6 -5 -17 -9 -26 -9 -26 0 -106
-62 -142 -110 -59 -80 -71 -133 -66 -289 3 -75 10 -146 15 -156 6 -11 18 -37
28 -57 22 -46 72 -97 117 -119 104 -52 196 -59 343 -26 l60 14 0 89 0 89 -29
-3 c-16 -2 -42 -10 -57 -18 -17 -8 -57 -14 -99 -14 -57 0 -76 4 -101 22 -56
42 -69 78 -71 196 -1 118 13 162 67 212 38 35 141 35 210 -1 l46 -24 20 24
c10 13 19 29 19 37 0 7 9 31 21 53 25 49 14 81 -29 81 -15 0 -45 7 -67 15 -38
13 -185 19 -230 8z"/>
<path d="M8561 7996 c-12 -18 -21 -43 -21 -54 0 -24 -99 -127 -111 -115 -4 5
-9 16 -11 26 -5 31 -98 57 -204 57 -114 0 -170 -22 -215 -83 -29 -39 -31 -47
-26 -105 6 -82 36 -122 121 -161 34 -17 73 -32 87 -36 13 -3 35 -14 48 -24 19
-14 22 -24 17 -45 -6 -24 -10 -26 -59 -26 -29 0 -86 11 -127 25 -41 13 -79 25
-83 25 -4 0 -7 -37 -5 -82 l3 -82 65 -17 c132 -35 280 -14 344 49 45 44 60
109 42 185 -17 72 -41 95 -143 136 -105 43 -128 56 -128 78 0 41 116 38 182
-5 31 -20 53 -9 53 27 0 42 19 49 33 12 9 -25 17 -31 47 -33 l35 -3 5 -182 c5
-164 7 -184 26 -210 51 -69 167 -92 274 -54 l55 19 0 74 c0 82 8 76 -91 63
-64 -9 -64 -11 -67 160 -3 145 -2 147 72 132 77 -16 82 -10 79 80 l-3 78 -72
-3 c-39 -2 -74 2 -77 7 -4 5 -2 29 3 53 13 57 2 68 -69 68 -55 0 -59 -2 -79
-34z m97 -177 c2 -19 -4 -33 -24 -48 -35 -27 -42 -27 -55 5 -14 38 12 76 49
72 21 -2 28 -9 30 -29z"/>
<path d="M4848 7893 c-8 -35 14 -478 25 -503 28 -64 105 -110 182 -110 53 0
130 33 151 66 10 14 26 24 40 24 20 0 24 -5 24 -28 0 -15 5 -33 12 -40 16 -16
132 -16 146 1 7 8 8 35 2 82 -12 92 -12 353 0 435 13 89 9 91 -109 88 l-96 -3
3 -135 c5 -242 -18 -320 -98 -320 -20 0 -45 6 -56 14 -18 14 -19 28 -19 228
l0 213 -101 3 c-91 2 -102 1 -106 -15z"/>
<path d="M5505 7904 c-10 -4 -11 -586 -1 -602 8 -14 185 -12 193 1 4 7 7 93 8
192 0 196 5 219 55 248 37 22 59 21 90 -4 l25 -21 0 -212 0 -211 99 -3 c113
-3 119 0 111 63 -3 22 -7 126 -10 232 -5 196 -11 229 -50 269 -38 39 -80 54
-157 54 -78 0 -100 -9 -153 -62 -36 -36 -55 -36 -55 1 0 56 -6 61 -79 60 -36
0 -70 -2 -76 -5z"/>
<path d="M6910 7889 c-50 -23 -140 -112 -140 -139 0 -10 -7 -35 -16 -56 -18
-44 -15 -167 5 -187 6 -6 11 -19 11 -30 0 -29 49 -105 85 -132 41 -32 137 -65
189 -65 76 0 156 31 205 80 55 53 77 118 87 250 6 75 4 92 -15 133 -28 61 -87
120 -146 146 -66 29 -201 29 -265 0z m201 -155 c22 -24 24 -33 24 -136 l0
-110 -33 -29 c-52 -46 -100 -33 -136 38 -30 61 -16 199 25 250 6 7 30 13 53
13 33 0 48 -6 67 -26z"/>
<path d="M7505 7895 c-22 -8 -50 -15 -61 -15 -38 0 -37 -16 6 -117 16 -37 42
-43 77 -18 13 9 51 18 85 21 73 7 97 -5 101 -51 l2 -30 -100 -7 c-126 -10
-178 -29 -214 -78 -24 -33 -27 -47 -29 -129 -2 -81 0 -94 20 -122 28 -37 97
-69 152 -69 55 0 120 28 142 62 27 39 63 38 71 -2 7 -40 32 -52 96 -48 l52 3
0 245 c0 228 -1 247 -20 275 -24 37 -39 50 -87 75 -31 17 -56 20 -145 20 -68
-1 -123 -6 -148 -15z m293 -268 c2 -10 -3 -17 -12 -17 -10 0 -16 9 -16 21 0
24 23 21 28 -4z m-75 -59 c2 -7 -2 -34 -9 -59 -17 -56 -50 -81 -100 -77 -75 6
-82 95 -11 131 39 19 113 22 120 5z"/>
<path d="M1320 7631 c0 -10 7 -21 15 -25 8 -3 15 -15 15 -26 0 -11 5 -20 10
-20 13 0 13 6 -2 46 -13 38 -38 54 -38 25z"/>
<path d="M19 6024 c-20 -22 -25 -64 -9 -92 5 -9 19 -37 30 -62 11 -25 24 -52
29 -60 5 -8 27 -44 47 -80 21 -36 42 -66 46 -68 4 -2 8 -8 8 -14 0 -13 71
-132 82 -136 4 -2 8 -9 8 -16 0 -7 14 -32 30 -54 17 -23 30 -45 30 -48 0 -10
103 -179 112 -182 4 -2 8 -9 8 -15 0 -7 20 -43 45 -80 25 -38 45 -72 45 -76 0
-5 13 -26 29 -48 16 -22 32 -49 35 -61 4 -12 11 -22 16 -22 5 0 12 -10 16 -22
4 -13 15 -34 24 -48 39 -57 90 -139 90 -145 0 -3 10 -27 21 -53 16 -34 20 -58
16 -91 -5 -43 -49 -141 -93 -207 -32 -49 -44 -68 -56 -94 -7 -14 -16 -28 -21
-31 -8 -6 -47 -72 -70 -119 -6 -14 -15 -29 -20 -35 -26 -33 -77 -119 -77 -131
0 -8 -4 -14 -9 -14 -5 0 -18 -17 -29 -37 -44 -84 -58 -108 -70 -121 -6 -7 -12
-18 -12 -24 0 -6 -7 -19 -15 -28 -14 -16 -41 -61 -86 -147 -12 -24 -26 -43
-30 -43 -4 0 -12 -12 -18 -27 -13 -32 -51 -100 -92 -161 -16 -24 -29 -50 -29
-58 0 -7 -4 -14 -10 -14 -5 0 -12 -16 -16 -35 -3 -19 -10 -38 -15 -41 -16 -10
-9 -61 10 -78 17 -16 42 -18 201 -17 178 1 206 4 195 21 -5 9 24 80 37 90 4 3
12 17 18 30 6 14 16 34 23 46 24 40 232 386 249 412 9 15 26 44 37 64 11 21
33 57 48 80 15 24 36 59 46 78 11 19 32 54 48 78 16 24 29 47 29 52 0 4 3 10
8 12 4 2 15 21 26 43 10 22 22 47 27 55 18 29 21 41 15 47 -14 14 -55 -41
-153 -202 -7 -11 -31 -51 -55 -90 -24 -38 -48 -82 -54 -96 -7 -15 -17 -29 -22
-33 -6 -3 -32 -43 -58 -89 -26 -45 -54 -89 -61 -98 -8 -9 -24 -35 -36 -57 -53
-98 -69 -124 -87 -142 -11 -11 -20 -26 -20 -32 0 -7 -9 -24 -20 -38 -99 -126
-112 -139 -140 -145 -28 -6 -110 -7 -175 -2 -35 2 -43 25 -22 64 35 67 67 123
107 188 23 39 65 112 92 163 27 51 61 112 75 135 15 23 36 60 48 82 41 77 77
137 143 237 37 56 78 121 92 145 41 71 143 237 156 253 15 20 24 69 12 76 -5
3 -6 25 -2 49 4 32 0 58 -16 102 -26 69 -83 182 -122 240 -15 23 -28 44 -28
48 0 3 -27 48 -60 101 -33 52 -60 99 -60 103 0 4 -9 16 -20 26 -11 10 -22 26
-25 37 -4 10 -24 46 -46 81 -21 34 -55 91 -75 127 -21 36 -48 80 -61 98 -13
18 -33 52 -44 76 -10 24 -26 49 -34 56 -8 7 -15 16 -15 21 0 5 -7 17 -16 27
-24 27 -64 92 -64 104 0 7 -9 21 -20 32 -10 12 -26 38 -35 58 -14 36 -14 38 8
49 12 7 58 14 102 16 44 2 101 8 128 13 57 12 75 3 115 -55 15 -22 29 -42 33
-45 3 -3 26 -41 52 -85 26 -44 52 -87 57 -95 5 -8 28 -46 51 -85 23 -38 45
-72 48 -75 4 -3 12 -16 19 -30 7 -14 21 -38 32 -55 11 -16 23 -37 27 -45 4 -8
13 -21 20 -28 7 -7 13 -20 13 -28 0 -8 5 -14 10 -14 6 0 14 -10 19 -22 5 -13
21 -40 35 -61 14 -21 26 -42 26 -47 0 -5 11 -21 25 -36 18 -20 25 -23 25 -11
0 9 -4 18 -9 21 -5 3 -12 18 -15 32 -4 15 -23 52 -43 83 -20 31 -51 83 -68
116 -17 33 -44 80 -60 105 -16 25 -42 72 -57 105 -16 33 -33 67 -38 75 -5 8
-19 33 -31 55 -12 22 -33 54 -46 72 -18 23 -23 41 -21 70 l3 38 92 -2 c66 -1
101 -7 126 -20 45 -23 114 -102 157 -178 19 -33 63 -104 98 -158 34 -54 66
-106 69 -115 4 -9 26 -47 50 -84 24 -36 43 -70 43 -74 0 -4 6 -15 14 -23 7 -9
28 -43 45 -76 18 -32 39 -68 49 -78 9 -11 33 -48 52 -83 19 -35 63 -110 96
-166 138 -230 144 -243 144 -304 0 -94 -77 -227 -121 -209 -24 10 -80 91 -221
323 -18 30 -38 59 -43 65 -6 7 -22 30 -35 52 -13 22 -26 42 -29 45 -4 3 -11
14 -18 25 -71 118 -95 155 -103 155 -6 0 -10 -4 -10 -9 0 -6 58 -106 129 -224
71 -118 132 -224 136 -236 3 -12 10 -21 15 -21 5 0 12 -10 16 -22 3 -11 29
-60 58 -107 53 -89 89 -160 100 -198 6 -17 1 -25 -22 -37 -17 -9 -50 -46 -75
-83 -57 -84 -92 -123 -110 -123 -7 0 -31 25 -53 56 -68 97 -114 154 -124 154
-16 0 -12 -12 25 -80 19 -36 39 -76 45 -90 6 -13 15 -27 19 -30 17 -10 61
-118 61 -147 0 -37 -34 -117 -61 -144 -11 -11 -41 -55 -66 -97 -25 -42 -61
-99 -78 -127 -18 -27 -48 -79 -66 -115 -20 -37 -60 -91 -96 -126 -51 -51 -71
-64 -125 -79 -34 -10 -88 -17 -118 -17 -65 1 -180 -17 -180 -28 0 -5 78 -10
173 -12 130 -2 174 0 180 10 4 6 14 12 21 12 20 0 116 73 116 88 0 7 9 20 20
29 11 10 20 25 20 34 0 9 7 22 15 29 8 7 15 19 15 26 0 8 5 14 10 14 6 0 10 8
10 19 0 10 7 24 15 31 8 7 25 32 37 56 12 24 25 44 30 44 4 0 8 9 8 20 0 10 9
24 21 31 14 7 19 17 16 30 -3 12 0 22 9 26 8 3 23 25 34 48 11 23 26 45 35 49
8 3 15 13 15 22 0 10 6 25 14 33 7 9 28 45 47 81 19 35 40 71 47 78 6 7 12 18
12 24 0 6 7 19 15 28 14 15 34 50 86 144 12 22 27 45 34 53 7 7 23 32 35 55
12 24 30 57 41 73 10 17 23 39 29 50 15 28 31 54 65 104 27 41 30 50 30 136 0
86 -3 95 -30 136 -34 50 -50 76 -65 104 -6 11 -19 34 -30 50 -11 17 -24 39
-30 50 -6 11 -19 34 -30 50 -11 17 -23 37 -27 45 -3 8 -18 33 -32 55 -36 56
-49 77 -61 100 -6 11 -19 34 -30 50 -11 17 -23 37 -27 45 -4 8 -18 31 -31 50
-13 19 -28 44 -33 55 -5 11 -18 34 -29 50 -11 17 -24 39 -30 50 -6 11 -19 34
-30 50 -11 17 -23 37 -27 45 -4 8 -18 31 -31 50 -13 19 -28 44 -33 55 -11 22
-20 38 -60 100 -14 22 -29 47 -32 55 -4 8 -16 29 -27 45 -11 17 -24 39 -30 50
-5 11 -15 27 -22 35 -23 27 -96 80 -110 80 -8 0 -19 5 -24 10 -6 6 -150 11
-383 13 -365 2 -373 2 -392 -19z"/>
<path d="M960 5120 c0 -11 7 -20 15 -20 13 0 14 4 5 20 -6 11 -13 20 -15 20
-3 0 -5 -9 -5 -20z"/>
<path d="M990 5060 c0 -11 5 -20 10 -20 6 0 10 9 10 20 0 11 -4 20 -10 20 -5
0 -10 -9 -10 -20z"/>
<path d="M2230 4941 c-30 -4 -64 -13 -75 -19 -11 -6 -27 -13 -35 -16 -54 -20
-140 -110 -161 -167 -29 -78 -42 -154 -36 -220 20 -227 109 -334 305 -368 40
-7 89 -10 107 -7 19 4 70 11 114 16 43 5 94 15 113 23 l33 14 -1 209 0 209
-165 0 -164 0 -3 -68 c-2 -38 2 -74 7 -81 7 -9 29 -11 67 -8 33 3 59 0 63 -6
3 -6 4 -39 1 -74 l-5 -63 -57 -3 c-73 -4 -128 23 -165 80 -26 39 -28 48 -28
152 0 94 3 116 20 141 54 82 114 105 228 86 39 -7 80 -20 90 -29 18 -16 20
-16 38 7 10 13 19 32 19 44 0 11 6 28 14 36 8 9 16 29 18 45 3 27 -1 31 -42
47 -54 20 -220 31 -300 20z"/>
<path d="M3667 4941 c-32 -5 -64 -14 -70 -20 -6 -6 -17 -11 -25 -11 -15 0 -83
-51 -121 -90 -13 -14 -33 -45 -45 -70 -19 -40 -21 -63 -21 -212 0 -120 3 -170
13 -179 6 -7 12 -19 12 -26 0 -17 37 -71 70 -101 68 -63 222 -102 324 -83 33
6 77 11 98 11 22 0 61 7 89 16 l49 16 0 212 0 212 -167 0 -168 -1 -1 -73 c-1
-44 2 -75 9 -79 7 -4 39 -7 72 -8 l60 0 1 -55 c1 -81 -6 -90 -72 -90 -144 0
-214 112 -189 305 6 50 12 63 53 105 38 39 56 49 92 55 56 8 169 -11 193 -32
15 -15 19 -15 37 2 11 10 20 25 20 34 0 9 9 34 20 56 11 22 20 46 20 55 0 38
-219 69 -353 51z"/>
<path d="M4490 4941 c-127 -19 -210 -109 -210 -226 0 -65 22 -115 72 -161 35
-33 47 -40 173 -101 63 -30 82 -44 90 -67 9 -25 6 -31 -20 -52 -50 -40 -148
-29 -262 29 -27 14 -46 18 -52 12 -5 -6 -6 -48 -2 -99 l6 -89 40 -13 c62 -20
179 -37 211 -31 16 3 47 8 69 12 95 17 163 69 190 147 31 90 8 205 -51 258
-31 27 -56 40 -185 99 -26 12 -54 30 -64 41 -35 39 5 90 71 90 28 0 144 -37
158 -51 6 -5 15 -9 21 -9 12 0 45 62 45 84 0 8 7 19 16 26 8 7 14 24 12 38 -2
20 -13 27 -61 42 -67 21 -200 31 -267 21z"/>
<path d="M6420 4941 c-121 -21 -219 -107 -265 -234 -15 -39 -17 -70 -13 -185
3 -76 10 -147 15 -157 6 -11 18 -37 28 -58 25 -51 76 -101 127 -125 68 -32
174 -47 237 -33 28 6 67 11 84 11 18 0 43 7 55 16 20 14 22 24 22 98 0 45 -3
86 -6 89 -4 4 -19 0 -33 -8 -42 -22 -122 -45 -158 -45 -50 0 -109 35 -139 81
-23 37 -26 51 -26 149 -1 96 2 112 23 150 37 66 69 85 143 84 44 0 78 -8 110
-23 56 -27 72 -23 81 21 4 18 13 43 20 54 8 12 15 34 17 48 3 25 -2 29 -51 46
-62 21 -204 32 -271 21z"/>
<path d="M2670 4933 c-1 -5 -1 -179 -1 -388 l1 -380 193 0 c142 0 202 4 223
14 16 7 45 20 64 29 54 26 108 81 137 142 24 49 27 69 31 192 5 167 -8 217
-78 287 -88 89 -165 111 -396 111 -96 0 -174 -3 -174 -7z m371 -186 c14 -9 36
-31 49 -49 23 -30 25 -42 25 -143 -1 -119 -12 -151 -66 -194 -29 -23 -134 -45
-156 -32 -13 7 -15 42 -15 219 1 117 1 215 1 218 2 13 138 -3 162 -19z"/>
<path d="M8562 4863 c-6 -10 -15 -37 -21 -59 -8 -30 -24 -52 -56 -79 l-45 -36
-30 30 c-38 38 -77 46 -212 45 -99 0 -110 -2 -148 -28 -64 -42 -82 -79 -77
-154 7 -99 40 -131 202 -197 62 -25 70 -31 73 -53 6 -37 -36 -48 -126 -33 -42
7 -86 19 -97 27 -10 8 -27 14 -37 14 -16 0 -18 -10 -18 -78 0 -86 8 -102 53
-102 16 0 58 -5 93 -12 50 -9 78 -9 136 2 80 15 117 33 147 71 42 54 42 184
-1 238 -17 23 -139 90 -162 91 -25 0 -86 36 -86 50 0 46 65 52 160 15 68 -27
80 -24 80 23 0 30 26 28 34 -3 5 -21 12 -25 46 -25 l40 0 0 -180 c0 -192 4
-209 54 -251 26 -21 128 -43 168 -35 18 3 51 9 73 12 22 4 46 11 53 17 12 10
18 148 6 160 -4 3 -19 0 -35 -8 -15 -8 -46 -15 -68 -15 -50 0 -50 1 -55 174
l-3 129 67 -6 c36 -3 72 -2 79 2 8 6 13 33 14 77 l1 69 -83 3 -83 3 7 37 c16
79 18 77 -62 80 -61 2 -73 0 -81 -15z m92 -159 c23 -23 20 -39 -15 -68 -24
-21 -34 -24 -45 -15 -20 17 -17 56 6 79 24 24 34 25 54 4z"/>
<path d="M5810 4765 c-34 -9 -63 -23 -76 -38 -12 -14 -31 -30 -43 -36 -23 -13
-27 -8 -33 39 -3 24 -6 25 -83 28 l-80 3 0 -301 0 -300 107 0 106 0 -5 159
c-6 176 3 241 40 272 31 26 89 25 113 -2 17 -20 19 -38 18 -225 l-1 -203 96
-3 c123 -4 124 -4 117 41 -3 20 -8 129 -11 242 -5 226 -11 248 -68 291 -17 14
-46 28 -63 31 -18 3 -42 8 -55 11 -13 2 -49 -2 -79 -9z"/>
<path d="M6955 4761 c-22 -4 -51 -14 -65 -22 -39 -22 -120 -110 -120 -129 0
-10 -7 -34 -15 -53 -19 -46 -19 -144 0 -181 8 -15 15 -36 15 -45 0 -28 65
-111 109 -141 56 -36 166 -58 220 -42 21 7 47 12 57 12 52 0 154 106 154 159
0 11 4 22 9 25 5 3 12 53 16 110 6 89 4 110 -11 143 -51 111 -125 161 -248
167 -44 3 -99 1 -121 -3z m150 -167 c14 -15 27 -45 31 -71 10 -68 -2 -172 -23
-196 -45 -50 -111 -39 -143 24 -39 75 -18 242 32 262 35 14 80 6 103 -19z"/>
<path d="M7555 4763 c-48 -4 -145 -34 -145 -45 0 -4 12 -35 28 -68 22 -50 31
-60 47 -56 11 3 48 13 82 22 80 21 130 13 144 -23 17 -45 6 -53 -73 -53 -40
-1 -102 -8 -137 -18 -51 -14 -70 -24 -94 -54 -28 -35 -31 -44 -34 -136 l-4
-98 35 -34 c79 -77 204 -78 283 -1 39 38 63 35 73 -10 6 -23 10 -24 79 -24
l73 0 -1 215 c-1 118 -4 231 -8 250 -4 23 -22 49 -54 81 -38 37 -56 47 -95 53
-46 6 -121 6 -199 -1z m163 -354 c5 -44 -21 -92 -62 -114 -33 -18 -39 -19 -64
-5 -15 9 -31 28 -36 42 -8 22 -5 33 17 62 27 35 53 45 112 42 25 -1 31 -6 33
-27z"/>
<path d="M4848 4753 c-9 -17 19 -490 29 -515 16 -36 68 -72 126 -88 69 -18
150 1 194 47 17 18 41 33 52 33 17 0 21 -6 21 -35 l0 -36 83 3 82 3 -5 60 c-3
33 -5 137 -5 230 0 94 2 199 5 235 l5 65 -104 3 c-57 1 -107 -1 -111 -5 -4 -4
-2 -52 3 -106 7 -65 7 -131 0 -196 -11 -118 -27 -141 -97 -141 -41 0 -45 3
-61 37 -16 33 -17 58 -11 225 l6 188 -104 0 c-58 0 -106 -3 -108 -7z"/>
<path d="M39 2934 c-28 -15 -46 -68 -30 -88 4 -6 11 -23 15 -38 3 -16 11 -28
16 -28 6 0 10 -5 10 -11 0 -6 36 -70 79 -143 43 -72 87 -145 97 -163 11 -18
66 -110 123 -205 58 -95 111 -184 119 -198 7 -14 21 -37 30 -52 9 -15 75 -123
147 -240 l130 -213 0 -90 0 -90 -115 -188 c-63 -103 -119 -195 -125 -205 -10
-17 -187 -312 -205 -342 -44 -70 -250 -421 -250 -425 0 -3 -11 -23 -25 -46
-14 -22 -29 -60 -34 -84 -7 -38 -5 -47 14 -65 11 -11 34 -20 49 -20 26 0 28 2
22 31 -6 31 17 84 67 156 12 17 36 55 52 83 17 28 40 66 52 83 12 18 38 64 58
102 20 39 43 77 50 85 7 8 30 47 50 85 44 84 122 212 146 240 9 11 26 41 37
68 12 26 25 47 29 47 5 0 19 19 32 43 74 141 139 237 159 237 26 0 102 -92
102 -124 0 -14 5 -28 10 -31 21 -13 8 -45 -55 -140 -36 -54 -65 -103 -65 -108
0 -5 -10 -22 -22 -37 -13 -15 -36 -51 -53 -80 -16 -29 -45 -75 -63 -103 -18
-28 -45 -75 -58 -104 -14 -29 -36 -66 -48 -81 -13 -15 -35 -50 -49 -79 -15
-28 -31 -54 -37 -58 -5 -3 -19 -25 -30 -48 -11 -23 -38 -73 -60 -112 -22 -38
-41 -74 -43 -80 -27 -73 -27 -75 2 -75 19 0 32 7 39 23 15 28 35 61 43 67 3 3
52 83 110 178 57 95 112 185 121 200 10 15 21 34 25 42 3 8 18 33 32 55 40 62
49 78 60 100 5 11 21 37 35 58 14 21 26 40 26 43 0 2 12 23 27 47 36 55 43 67
72 119 13 24 36 62 51 85 42 62 44 77 17 109 -13 16 -32 44 -41 62 -9 17 -21
32 -26 32 -6 0 -10 8 -10 18 0 10 -12 34 -26 53 -38 51 -90 181 -79 198 7 12
-23 143 -36 156 -5 5 -9 17 -9 26 0 10 -11 30 -23 46 -13 15 -36 54 -50 85
-15 31 -32 60 -37 63 -6 4 -22 29 -36 56 -13 27 -40 69 -58 93 -18 24 -37 57
-40 73 -4 15 -16 37 -26 48 -11 11 -26 37 -34 57 -9 20 -19 38 -23 40 -9 3
-35 47 -58 96 -9 18 -31 53 -50 78 -19 25 -35 50 -35 55 0 8 -106 178 -128
204 -19 24 -82 145 -82 159 0 23 12 26 122 36 57 5 119 12 139 15 32 6 39 3
81 -39 25 -26 54 -63 64 -84 10 -20 31 -53 47 -73 15 -20 27 -40 27 -44 0 -4
14 -24 30 -45 17 -21 30 -44 30 -52 0 -7 9 -21 20 -31 23 -19 40 -23 22 -5 -7
7 -12 20 -12 30 0 9 -8 25 -19 35 -10 10 -25 35 -32 56 -8 22 -21 43 -30 48
-9 4 -22 30 -28 56 -7 26 -19 56 -28 65 -21 23 -12 40 22 44 17 1 53 6 82 9
33 4 53 2 58 -5 4 -6 13 -9 21 -6 15 6 68 -26 120 -72 31 -26 124 -170 124
-190 0 -5 17 -31 38 -56 35 -42 50 -66 101 -161 37 -66 77 -134 128 -212 29
-45 58 -95 64 -110 6 -15 19 -37 29 -48 10 -11 29 -39 42 -62 50 -89 102 -180
133 -233 18 -30 47 -84 65 -119 33 -62 33 -64 22 -133 -7 -46 -18 -78 -31 -92
-12 -12 -21 -30 -21 -38 0 -18 -45 -58 -64 -58 -14 1 -37 29 -82 103 -20 31
-42 57 -50 57 -20 0 -17 -17 6 -37 11 -10 20 -25 20 -35 0 -9 4 -19 9 -23 6
-3 19 -24 30 -48 39 -83 61 -137 61 -146 0 -5 -24 -33 -54 -61 -32 -30 -61
-69 -70 -95 -12 -30 -24 -45 -41 -49 -15 -4 -25 -14 -25 -24 -1 -53 -47 -49
-75 6 -11 20 -31 53 -45 72 -15 19 -30 43 -33 52 -4 10 -11 18 -17 18 -16 0
-12 -30 5 -36 8 -4 15 -17 15 -30 0 -13 4 -24 9 -24 5 0 13 -10 17 -22 4 -13
17 -39 29 -58 40 -64 55 -116 49 -164 -6 -38 -11 -46 -38 -57 -37 -15 -50 -30
-76 -84 -21 -44 -23 -46 -92 -153 -27 -40 -48 -76 -48 -80 0 -22 -105 -192
-119 -192 -4 0 -27 -23 -51 -51 -48 -57 -43 -74 20 -64 39 7 129 88 130 117 0
10 9 22 20 28 11 6 20 19 20 28 0 10 5 23 11 29 12 12 33 46 48 80 5 11 15 24
20 28 6 3 11 13 11 21 0 8 11 27 25 42 14 15 25 35 25 44 0 10 9 22 20 28 11
6 20 19 20 29 0 10 7 24 15 31 8 7 15 19 15 26 0 8 4 14 9 14 5 0 14 12 20 28
6 15 15 34 20 42 22 33 101 169 101 173 0 2 20 35 45 73 25 37 45 74 45 81 0
7 4 13 9 13 5 0 14 12 20 28 6 15 19 39 29 54 48 76 122 197 122 202 0 3 14
25 30 49 16 25 30 52 30 60 0 9 5 19 10 22 16 10 12 119 -6 161 -9 21 -33 64
-55 97 -21 32 -39 60 -39 63 0 10 -164 279 -172 282 -4 2 -8 7 -8 12 0 12 -73
134 -82 138 -5 2 -8 8 -8 13 0 5 -36 69 -80 142 -100 164 -99 163 -132 214
-14 22 -29 51 -33 62 -3 12 -11 21 -16 21 -5 0 -9 5 -9 11 0 10 -68 127 -80
139 -3 3 -11 17 -17 31 -28 63 -116 139 -178 152 -16 4 -187 9 -380 11 -288 4
-355 2 -376 -10z"/>
<path d="M750 2390 c0 -11 5 -20 10 -20 6 0 10 9 10 20 0 11 -4 20 -10 20 -5
0 -10 -9 -10 -20z"/>
<path d="M2168 1883 c-25 -6 -22 -29 3 -36 26 -7 49 1 49 18 0 10 -26 29 -33
24 -1 -1 -10 -3 -19 -6z"/>
<path d="M2453 1883 c-7 -2 -13 -11 -13 -18 0 -18 19 -23 58 -18 34 6 46 33
13 33 -11 0 -25 2 -33 4 -7 3 -19 2 -25 -1z"/>
<path d="M2677 1882 c-19 -4 -18 32 -19 -494 -1 -170 1 -310 3 -312 4 -5 225
-10 317 -7 39 1 52 5 52 16 0 17 3 16 -200 19 l-135 1 0 370 0 370 198 3 c166
2 197 5 197 17 0 17 -13 18 -256 19 -77 1 -148 0 -157 -2z"/>
<path d="M3608 1883 c-25 -6 -22 -29 3 -36 29 -8 51 2 47 22 -3 17 -22 22 -50
14z"/>
<path d="M3893 1883 c-7 -2 -13 -11 -13 -19 0 -10 13 -14 44 -14 41 0 67 12
49 23 -15 9 -68 16 -80 10z"/>
<path d="M4423 1883 c-19 -7 -16 -30 5 -35 10 -3 29 -1 42 4 24 9 24 10 6 24
-20 14 -32 16 -53 7z"/>
<path d="M6617 1884 c-12 -12 -8 -32 8 -38 21 -8 71 12 59 24 -13 13 -58 22
-67 14z"/>
<path d="M4670 1866 c0 -12 11 -16 46 -16 59 0 55 24 -4 28 -33 2 -42 0 -42
-12z"/>
<path d="M6344 1865 c-4 -8 -17 -15 -30 -15 -13 0 -24 -5 -24 -10 0 -6 -11
-15 -25 -20 -14 -5 -25 -16 -25 -25 0 -8 -7 -15 -15 -15 -9 0 -19 -8 -22 -17
-4 -10 -16 -26 -28 -35 -18 -15 -19 -17 -2 -23 18 -7 56 28 57 53 0 7 12 18
28 25 15 6 31 17 35 24 4 7 16 13 26 13 11 0 21 7 25 15 3 9 19 15 41 15 24 0
35 4 35 15 0 11 -11 15 -35 15 -22 0 -38 -6 -41 -15z"/>
<path d="M2086 1835 c-3 -8 -13 -15 -23 -15 -17 0 -63 -40 -63 -54 0 -13 28
-5 34 9 3 8 14 15 25 15 11 0 23 5 26 11 4 5 18 14 32 20 13 5 21 13 18 19 -9
15 -42 12 -49 -5z"/>
<path d="M2550 1840 c0 -6 9 -20 20 -32 17 -19 20 -19 26 -5 3 10 4 24 0 32
-6 17 -46 21 -46 5z"/>
<path d="M3110 1835 c0 -10 10 -15 29 -15 16 0 31 -6 35 -15 3 -8 14 -15 25
-15 10 0 21 -7 25 -15 3 -8 12 -15 21 -15 8 0 15 7 15 15 0 8 -6 15 -14 15 -8
0 -16 7 -20 15 -3 8 -17 15 -31 15 -16 0 -25 6 -25 15 0 10 -10 15 -30 15 -20
0 -30 -5 -30 -15z"/>
<path d="M3526 1835 c-3 -8 -13 -15 -23 -15 -17 0 -63 -40 -63 -54 0 -3 7 -6
15 -6 8 0 15 4 15 10 0 5 11 12 25 16 13 3 29 12 36 20 6 8 20 14 30 14 11 0
19 7 19 15 0 9 -9 15 -24 15 -13 0 -26 -7 -30 -15z"/>
<path d="M3985 1840 c-3 -6 1 -13 9 -16 9 -3 16 -12 16 -20 0 -8 7 -14 15 -14
10 0 15 10 15 30 0 25 -4 30 -24 30 -14 0 -28 -5 -31 -10z"/>
<path d="M4363 1837 c-4 -8 -16 -16 -26 -20 -9 -4 -20 -15 -24 -24 -3 -10 -14
-25 -24 -33 -13 -10 -17 -22 -13 -37 8 -31 34 -30 34 1 0 15 16 38 45 65 25
23 45 46 45 51 0 15 -28 12 -37 -3z"/>
<path d="M4770 1836 c0 -8 5 -16 12 -18 7 -3 12 -19 12 -36 1 -52 21 -36 23
18 2 47 1 50 -22 50 -15 0 -25 -6 -25 -14z"/>
<path d="M6700 1840 c0 -5 9 -14 20 -20 24 -13 26 -30 5 -30 -10 0 -15 -10
-15 -30 0 -20 5 -30 15 -30 10 0 15 10 15 26 0 15 7 32 16 39 14 10 15 14 3
33 -14 22 -59 31 -59 12z"/>
<path d="M8544 1806 c-8 -21 -1 -49 14 -54 8 -2 12 7 12 27 0 33 -17 51 -26
27z"/>
<path d="M2547 1783 c-13 -13 -7 -53 8 -53 10 0 15 10 15 30 0 29 -9 38 -23
23z"/>
<path d="M3986 1783 c-10 -10 -7 -51 5 -59 15 -9 28 13 22 37 -6 22 -17 31
-27 22z"/>
<path d="M1970 1725 c-5 -14 -14 -25 -20 -25 -5 0 -10 -13 -10 -30 0 -20 5
-30 15 -30 9 0 15 9 15 25 0 14 7 28 15 31 17 7 21 54 5 54 -6 0 -15 -11 -20
-25z"/>
<path d="M3260 1725 c0 -14 5 -25 10 -25 6 0 15 -12 20 -26 6 -14 14 -22 20
-19 15 9 12 42 -5 49 -8 3 -15 15 -15 26 0 11 -7 20 -15 20 -9 0 -15 -9 -15
-25z"/>
<path d="M3410 1725 c0 -9 -7 -18 -15 -21 -9 -4 -15 -19 -15 -35 0 -19 5 -29
15 -29 9 0 15 9 15 25 0 14 7 28 15 31 8 4 15 15 15 25 0 10 -7 19 -15 19 -8
0 -15 -7 -15 -15z"/>
<path d="M4760 1700 c0 -32 -23 -42 -34 -15 -3 9 -19 15 -41 15 -24 0 -35 -4
-35 -15 0 -15 15 -19 56 -16 12 1 24 -5 28 -14 5 -15 9 -14 31 7 27 26 34 68
10 68 -10 0 -15 -10 -15 -30z"/>
<path d="M5835 1721 c-3 -5 3 -11 12 -13 28 -6 73 3 67 13 -7 12 -71 12 -79 0z"/>
<path d="M6505 1720 c-30 -8 -30 -8 8 -9 23 -1 36 3 32 9 -3 6 -7 9 -8 9 -1
-1 -15 -5 -32 -9z"/>
<path d="M7005 1721 c-9 -16 15 -23 53 -16 35 8 36 8 12 15 -36 11 -58 11 -65
1z"/>
<path d="M7611 1721 c-22 -14 30 -25 76 -16 27 5 33 9 22 16 -18 11 -80 11
-98 0z"/>
<path d="M8175 1721 c-18 -7 -17 -8 7 -13 38 -7 94 2 77 13 -17 11 -57 10 -84
0z"/>
<path d="M8498 1701 c-13 -24 -24 -30 -55 -33 -46 -4 -50 -22 -6 -26 39 -4
103 40 103 69 0 28 -23 23 -42 -10z"/>
<path d="M2318 1713 c12 -2 32 -2 45 0 12 2 2 4 -23 4 -25 0 -35 -2 -22 -4z"/>
<path d="M3731 1716 c8 -8 78 -10 85 -3 4 4 -14 7 -41 7 -27 0 -46 -2 -44 -4z"/>
<path d="M2231 1691 c-12 -12 -28 -21 -36 -21 -8 0 -15 -9 -15 -20 0 -12 7
-20 16 -20 9 0 18 9 21 20 4 14 14 20 35 20 22 0 29 4 26 17 -5 25 -24 27 -47
4z"/>
<path d="M2516 1703 c-12 -12 -6 -43 9 -43 8 0 15 9 15 19 0 21 -13 34 -24 24z"/>
<path d="M3683 1703 c-23 -9 -15 -35 10 -31 12 2 22 9 22 17 0 16 -14 22 -32
14z"/>
<path d="M3950 1694 c-9 -10 -10 -18 -2 -26 12 -12 32 -2 32 17 0 21 -16 26
-30 9z"/>
<path d="M4839 1692 c-17 -12 -19 -27 -19 -126 0 -89 -3 -116 -15 -126 -8 -7
-15 -18 -15 -25 0 -7 7 -15 15 -19 11 -4 15 -22 15 -71 0 -49 -4 -67 -15 -71
-8 -4 -15 -15 -15 -25 0 -21 -70 -95 -95 -101 -22 -4 -20 -22 4 -26 19 -3 91
59 91 79 0 6 13 22 30 35 l30 25 2 212 3 212 70 3 c119 5 110 19 110 -179 0
-133 3 -173 13 -177 11 -3 13 34 10 194 l-3 199 -99 0 c-65 0 -105 -4 -117
-13z"/>
<path d="M5543 1703 l-63 -4 0 -309 c0 -170 4 -311 8 -314 17 -10 213 -9 223
1 7 7 11 70 11 170 0 201 1 193 -17 193 -8 0 -15 -8 -16 -17 0 -10 -1 -85 -2
-168 l-2 -150 -85 0 -85 0 0 280 0 280 68 1 c63 1 70 -1 80 -23 12 -26 29 -30
47 -8 16 19 5 35 -24 35 -15 0 -26 7 -29 20 -3 14 -13 19 -29 18 -12 -1 -51
-3 -85 -5z"/>
<path d="M6910 1703 c-8 -3 -19 -12 -23 -19 -4 -8 -16 -14 -25 -14 -18 0 -62
-41 -62 -58 0 -5 -7 -12 -15 -16 -8 -3 -15 -15 -15 -26 0 -11 7 -20 15 -20 9
0 15 9 15 24 0 13 7 26 15 30 8 3 15 12 15 21 0 10 10 15 29 15 17 0 31 6 35
16 3 9 15 14 28 12 17 -2 23 2 23 16 0 21 -12 27 -35 19z"/>
<path d="M8327 1699 c-25 -15 -11 -29 29 -29 36 0 48 22 18 34 -21 8 -26 7
-47 -5z"/>
<path d="M8713 1694 c-9 -23 5 -29 65 -29 l57 0 0 -55 0 -55 -57 -3 c-44 -2
-58 -7 -58 -18 0 -12 14 -14 73 -12 l72 3 3 87 3 86 -28 5 c-56 11 -124 6
-130 -9z"/>
<path d="M2410 1686 c0 -18 22 -26 49 -19 35 9 25 33 -14 33 -23 0 -35 -5 -35
-14z"/>
<path d="M2869 1683 c0 -18 0 -381 1 -416 0 -16 8 -18 65 -15 76 3 87 21 18
28 l-48 5 1 190 c0 105 2 197 5 205 2 9 -4 16 -18 18 -17 2 -23 -2 -24 -15z"/>
<path d="M2942 1691 c-18 -11 7 -21 55 -21 42 0 83 -37 83 -76 0 -15 6 -24 15
-24 10 0 15 10 15 29 0 16 -6 31 -15 35 -8 3 -15 12 -15 21 0 8 -7 15 -15 15
-9 0 -18 7 -21 15 -7 17 -79 21 -102 6z"/>
<path d="M3857 1693 c-15 -15 -5 -23 28 -23 24 0 35 5 35 15 0 15 -50 22 -63
8z"/>
<path d="M4492 1672 c1 -15 -1 -33 -5 -39 -10 -15 16 -34 32 -23 9 5 11 14 6
26 -4 11 -7 29 -6 42 2 14 -3 22 -13 22 -12 0 -16 -8 -14 -28z"/>
<path d="M5208 1573 c-3 -227 -2 -233 17 -233 9 0 15 9 16 23 0 12 1 85 2 162
l2 140 85 0 85 0 0 -280 0 -280 -73 -3 c-63 -2 -73 -5 -70 -20 3 -15 14 -17
83 -13 45 2 83 8 87 15 5 6 7 146 5 311 l-2 300 -117 3 -118 3 -2 -128z"/>
<path d="M5747 1693 c-15 -14 -6 -23 23 -23 20 0 30 5 30 15 0 15 -40 21 -53
8z"/>
<path d="M5946 1691 c-6 -9 70 -51 93 -51 21 0 6 25 -17 28 -12 2 -22 10 -22
18 0 16 -45 20 -54 5z"/>
<path d="M6397 1678 c-11 -11 -16 -26 -12 -36 6 -15 9 -14 25 6 10 12 25 22
34 22 9 0 16 7 16 15 0 22 -41 17 -63 -7z"/>
<path d="M6577 1694 c-12 -13 4 -24 34 -24 17 0 32 -6 35 -15 7 -18 35 -20 52
-3 17 17 15 48 -3 48 -8 0 -15 -7 -15 -15 0 -8 -7 -15 -15 -15 -8 0 -15 7 -15
15 0 10 -10 15 -33 15 -19 0 -37 -3 -40 -6z"/>
<path d="M7130 1686 c0 -12 10 -16 36 -16 45 0 42 24 -4 28 -24 2 -32 -1 -32
-12z"/>
<path d="M7460 1685 c0 -10 -10 -15 -29 -15 -21 0 -30 -6 -34 -22 -13 -46 20
-52 46 -8 16 26 24 30 63 30 32 0 44 4 44 15 0 11 -12 15 -45 15 -33 0 -45 -4
-45 -15z"/>
<path d="M7760 1685 c0 -9 9 -15 23 -15 24 0 97 -66 97 -88 0 -17 27 -15 34 3
3 8 -3 20 -13 27 -10 7 -23 23 -30 36 -6 12 -18 22 -27 22 -8 0 -17 7 -20 15
-4 9 -19 15 -35 15 -19 0 -29 -5 -29 -15z"/>
<path d="M8054 1685 c-4 -8 -17 -15 -30 -15 -14 0 -24 -6 -24 -14 0 -8 -7 -16
-15 -20 -8 -3 -15 -17 -15 -31 0 -16 6 -25 15 -25 10 0 15 10 15 30 0 23 4 30
20 30 11 0 23 7 26 15 4 9 19 15 40 15 24 0 34 5 34 15 0 10 -10 15 -30 15
-18 0 -33 -6 -36 -15z"/>
<path d="M6142 1648 c2 -18 8 -33 13 -33 6 0 11 15 13 33 3 24 -1 32 -13 32
-12 0 -16 -8 -13 -32z"/>
<path d="M3620 1649 c0 -25 33 -22 38 4 2 12 -3 17 -17 17 -15 0 -21 -6 -21
-21z"/>
<path d="M7205 1660 c-3 -6 1 -13 10 -17 36 -13 71 -60 95 -126 5 -16 14 -25
20 -22 15 10 12 55 -5 61 -8 4 -15 15 -15 26 0 24 -61 88 -83 88 -9 0 -19 -5
-22 -10z"/>
<path d="M2152 1595 c2 -14 8 -26 13 -26 6 0 11 12 13 26 2 18 -1 25 -13 25
-12 0 -15 -7 -13 -25z"/>
<path d="M3592 1588 c2 -18 8 -33 13 -33 6 0 11 15 13 33 3 24 -1 32 -13 32
-12 0 -16 -8 -13 -32z"/>
<path d="M6050 1596 c0 -17 5 -26 16 -26 10 0 14 7 12 22 -5 32 -28 35 -28 4z"/>
<path d="M6353 1608 c-14 -17 -5 -68 12 -68 18 0 26 52 11 68 -10 11 -15 11
-23 0z"/>
<path d="M1914 1598 c-5 -7 -10 -56 -12 -108 -4 -103 9 -163 31 -141 8 8 12
49 11 127 0 111 -11 153 -30 122z"/>
<path d="M3324 1495 c1 -92 5 -118 18 -131 9 -9 20 -14 26 -10 5 3 10 57 10
121 -1 101 -3 117 -19 125 -10 6 -22 10 -27 10 -5 0 -8 -52 -8 -115z"/>
<path d="M4542 1598 c7 -20 48 -23 48 -4 0 11 -9 16 -26 16 -16 0 -24 -5 -22
-12z"/>
<path d="M8397 1603 c-25 -25 17 -82 61 -83 22 0 22 -1 22 -149 0 -82 3 -156
6 -165 16 -42 24 10 24 158 l0 164 -30 12 c-17 7 -38 26 -46 41 -14 29 -25 35
-37 22z"/>
<path d="M4277 1578 c-6 -17 10 -58 23 -58 5 0 10 -4 10 -10 0 -15 69 -80 85
-80 8 0 15 7 15 15 0 8 -5 15 -12 15 -15 0 -89 78 -87 93 3 26 -2 37 -15 37
-8 0 -16 -6 -19 -12z"/>
<path d="M4610 1580 c-7 -4 -9 -13 -6 -19 10 -16 46 -14 46 3 0 17 -23 27 -40
16z"/>
<path d="M6106 1565 c-14 -21 -17 -63 -21 -237 -2 -116 -6 -212 -8 -214 -2 -2
-49 -4 -105 -5 -93 -1 -102 -2 -102 -20 0 -23 -7 -21 113 -24 l98 -3 16 31
c12 25 15 52 10 135 -4 94 -3 106 14 120 16 14 19 31 19 124 0 59 -4 109 -9
112 -5 3 -16 -5 -25 -19z"/>
<path d="M7434 1576 c-8 -21 3 -49 16 -41 5 3 10 15 10 25 0 25 -18 36 -26 16z"/>
<path d="M8197 1579 c-22 -13 -13 -29 17 -29 29 0 39 10 25 27 -13 15 -18 16
-42 2z"/>
<path d="M5780 1552 c-36 -17 -60 -38 -60 -54 0 -24 17 -23 32 2 8 12 24 20
41 20 15 0 35 -9 44 -20 10 -11 21 -20 25 -20 15 0 8 30 -14 55 -22 25 -40 30
-68 17z"/>
<path d="M7076 1553 c-3 -4 -24 -6 -45 -5 -39 3 -61 -12 -44 -29 5 -5 21 -5
38 0 42 12 69 -1 75 -35 6 -34 24 -35 28 0 3 25 -39 82 -52 69z"/>
<path d="M7920 1545 c-10 -13 -12 -59 -7 -225 7 -201 6 -209 -13 -215 -10 -3
-35 -3 -54 1 -45 8 -86 -2 -86 -21 0 -19 25 -25 91 -22 48 3 60 8 87 37 29 30
32 39 32 96 l0 63 35 -6 c28 -5 35 -2 35 11 0 14 -8 16 -47 14 l-48 -3 -3 99
c-2 80 0 102 13 116 20 22 16 64 -6 68 -9 1 -22 -4 -29 -13z"/>
<path d="M2240 1471 c0 -52 4 -82 13 -89 7 -6 40 -12 72 -14 60 -3 60 -3 63
-36 5 -55 -11 -65 -95 -57 -61 6 -73 4 -73 -8 0 -12 18 -15 97 -13 l97 1 10
33 c6 20 6 47 0 70 l-9 37 -70 5 -70 5 1 73 c0 63 -2 72 -18 72 -16 0 -18 -9
-18 -79z"/>
<path d="M3680 1471 c0 -52 4 -82 13 -89 7 -6 40 -12 72 -14 57 -3 60 -4 63
-30 2 -15 -2 -37 -8 -49 -11 -20 -17 -21 -87 -14 -61 6 -74 4 -71 -7 4 -10 29
-13 98 -13 l94 0 10 33 c6 20 6 47 0 70 l-9 37 -70 5 -70 5 1 73 c0 63 -2 72
-18 72 -16 0 -18 -9 -18 -79z"/>
<path d="M4662 1538 c3 -7 13 -15 24 -17 10 -2 23 -9 27 -17 4 -8 14 -14 21
-14 8 0 20 -10 29 -22 14 -21 16 -21 22 -5 8 19 -29 56 -56 57 -9 0 -19 7 -23
15 -7 18 -50 21 -44 3z"/>
<path d="M7505 1540 c-3 -6 1 -13 9 -16 22 -8 68 4 61 16 -8 13 -62 13 -70 0z"/>
<path d="M7667 1544 c-9 -10 2 -24 19 -24 8 0 14 7 14 15 0 15 -21 21 -33 9z"/>
<path d="M8157 1544 c-11 -12 33 -63 48 -57 20 7 19 33 0 33 -9 0 -18 7 -21
15 -6 16 -17 19 -27 9z"/>
<path d="M8290 1535 c0 -10 10 -15 30 -15 20 0 30 5 30 15 0 10 -10 15 -30 15
-20 0 -30 -5 -30 -15z"/>
<path d="M2372 1533 c37 -2 100 -2 140 0 40 1 10 3 -67 3 -77 0 -110 -1 -73
-3z"/>
<path d="M3823 1533 c43 -2 110 -2 150 0 40 1 5 3 -78 3 -82 0 -115 -2 -72 -3z"/>
<path d="M6738 1484 c-4 -50 4 -70 21 -60 17 11 14 106 -3 106 -9 0 -15 -15
-18 -46z"/>
<path d="M7462 1509 c2 -6 8 -10 13 -10 5 0 11 4 13 10 2 6 -4 11 -13 11 -9 0
-15 -5 -13 -11z"/>
<path d="M1290 1485 c0 -8 5 -15 10 -15 6 0 10 7 10 15 0 8 -4 15 -10 15 -5 0
-10 -7 -10 -15z"/>
<path d="M6322 1487 c-14 -16 -4 -57 13 -57 18 0 27 43 11 58 -10 11 -15 11
-24 -1z"/>
<path d="M7610 1493 c-139 -7 -146 -30 -10 -33 111 -3 110 -3 110 20 0 13 -6
19 -17 18 -10 -1 -47 -3 -83 -5z"/>
<path d="M2120 1475 c0 -8 7 -15 15 -15 8 0 15 7 15 15 0 8 -7 15 -15 15 -8 0
-15 -7 -15 -15z"/>
<path d="M6950 1385 c0 -87 3 -105 15 -105 8 0 15 -6 15 -13 0 -26 36 -47 78
-47 31 0 42 4 42 15 0 8 7 15 15 15 10 0 15 11 15 35 0 46 -27 49 -32 3 -3
-30 -6 -33 -40 -36 -50 -4 -80 26 -77 76 5 97 -1 162 -16 162 -12 0 -15 -18
-15 -105z"/>
<path d="M8240 1475 c0 -10 10 -15 30 -15 20 0 30 5 30 15 0 10 -10 15 -30 15
-20 0 -30 -5 -30 -15z"/>
<path d="M7340 1406 c0 -73 10 -88 34 -51 14 21 14 31 4 70 -18 68 -38 58 -38
-19z"/>
<path d="M5884 1325 c0 -77 2 -107 3 -67 2 40 2 103 0 140 -2 37 -3 4 -3 -73z"/>
<path d="M7430 1445 c0 -12 7 -15 25 -13 14 2 26 8 26 13 0 6 -12 11 -26 13
-18 2 -25 -1 -25 -13z"/>
<path d="M7974 1445 c-3 -8 -3 -19 1 -25 11 -18 25 -11 25 15 0 27 -17 34 -26
10z"/>
<path d="M8310 1445 c0 -8 8 -15 18 -15 10 0 29 -13 42 -30 26 -31 50 -39 50
-17 0 16 -32 47 -48 47 -7 0 -12 7 -12 15 0 9 -9 15 -25 15 -16 0 -25 -6 -25
-15z"/>
<path d="M4430 1415 c0 -8 9 -15 20 -15 11 0 20 7 20 15 0 8 -9 15 -20 15 -11
0 -20 -7 -20 -15z"/>
<path d="M7130 1385 c0 -55 26 -64 32 -11 5 42 0 56 -18 56 -10 0 -14 -13 -14
-45z"/>
<path d="M3087 1403 c-4 -3 -7 -16 -7 -29 0 -12 -13 -33 -30 -47 -29 -25 -39
-47 -21 -47 5 0 28 17 51 38 37 35 40 41 31 65 -11 29 -14 31 -24 20z"/>
<path d="M6357 1403 c-13 -13 -7 -73 7 -73 20 0 27 26 16 55 -10 27 -13 29
-23 18z"/>
<path d="M4482 1388 c3 -7 19 -14 36 -16 18 -2 32 -9 32 -17 0 -7 6 -15 14
-18 7 -3 16 -15 19 -27 4 -16 -1 -23 -20 -31 -32 -12 -18 -32 18 -27 47 6 31
118 -16 118 -7 0 -15 7 -19 15 -7 19 -70 21 -64 3z"/>
<path d="M8000 1385 c0 -8 7 -15 15 -15 8 0 15 7 15 15 0 8 -7 15 -15 15 -8 0
-15 -7 -15 -15z"/>
<path d="M3594 1376 c-8 -21 -1 -49 14 -54 8 -2 12 7 12 27 0 33 -17 51 -26
27z"/>
<path d="M2150 1351 c0 -16 6 -31 15 -35 8 -3 15 -12 15 -21 0 -8 7 -15 15
-15 8 0 15 6 15 14 0 8 -7 16 -15 20 -9 3 -15 18 -15 36 0 20 -5 30 -15 30
-10 0 -15 -10 -15 -29z"/>
<path d="M7633 1373 c-13 -2 -23 -10 -23 -17 0 -6 -13 -20 -30 -29 -57 -34
-26 -107 45 -107 34 0 75 27 75 50 0 15 -16 12 -30 -6 -9 -10 -26 -14 -49 -12
-29 2 -37 8 -39 26 -6 39 23 61 77 59 39 -2 46 -5 49 -24 3 -20 22 -34 22 -16
0 21 -26 73 -36 73 -7 0 -18 2 -26 4 -7 2 -23 1 -35 -1z"/>
<path d="M6746 1363 c-3 -3 -6 -19 -6 -35 0 -15 -4 -36 -10 -46 -5 -9 -12 -47
-15 -84 -5 -49 -11 -68 -21 -68 -8 0 -14 -7 -14 -15 0 -23 26 -18 44 9 12 18
14 37 9 71 -5 41 -4 47 16 52 18 5 21 13 21 59 0 50 -9 72 -24 57z"/>
<path d="M8052 1358 c7 -19 38 -22 38 -4 0 10 -9 16 -21 16 -12 0 -19 -5 -17
-12z"/>
<path d="M8420 1329 c0 -38 24 -35 28 4 2 19 -1 27 -12 27 -11 0 -16 -10 -16
-31z"/>
<path d="M8100 1325 c0 -12 7 -15 25 -13 14 2 26 8 26 13 0 6 -12 11 -26 13
-18 2 -25 -1 -25 -13z"/>
<path d="M6146 1323 c-12 -13 -6 -64 9 -69 8 -4 15 -13 15 -20 0 -27 59 -104
79 -104 5 0 14 -7 21 -15 15 -18 50 -20 50 -2 0 7 -17 21 -37 32 -45 23 -83
60 -83 81 0 8 -7 17 -15 20 -9 4 -15 19 -15 39 0 33 -11 51 -24 38z"/>
<path d="M3290 1301 c0 -10 -7 -24 -15 -31 -8 -7 -15 -17 -15 -22 0 -16 -76
-88 -93 -88 -8 0 -20 -7 -27 -15 -7 -8 -23 -15 -36 -15 -27 0 -33 -24 -9 -34
20 -7 42 2 49 20 3 8 14 14 24 14 26 0 122 93 122 118 0 11 7 22 15 26 8 3 15
15 15 26 0 11 -7 20 -15 20 -8 0 -15 -8 -15 -19z"/>
<path d="M6384 1306 c-5 -13 -3 -21 4 -24 7 -2 18 -9 25 -16 18 -18 237 -19
237 -1 0 11 -23 13 -109 12 -105 -1 -110 0 -129 23 -20 24 -21 24 -28 6z"/>
<path d="M1940 1280 c0 -20 5 -30 15 -30 9 0 15 -9 15 -25 0 -14 7 -28 15 -31
8 -4 15 -10 15 -15 0 -15 39 -49 55 -49 21 0 19 17 -5 30 -11 6 -20 17 -20 25
0 8 -5 15 -10 15 -6 0 -15 11 -20 25 -5 14 -14 25 -20 25 -5 0 -10 14 -10 30
0 20 -5 30 -15 30 -10 0 -15 -10 -15 -30z"/>
<path d="M3380 1280 c0 -20 5 -30 15 -30 8 0 15 -8 15 -19 0 -10 7 -24 15 -31
8 -7 15 -16 15 -21 0 -15 39 -49 55 -49 8 0 15 7 15 15 0 8 -7 15 -16 15 -9 0
-18 9 -21 20 -3 11 -9 20 -14 20 -5 0 -14 11 -19 25 -5 14 -14 25 -20 25 -5 0
-10 14 -10 30 0 20 -5 30 -15 30 -10 0 -15 -10 -15 -30z"/>
<path d="M3622 1298 c6 -18 28 -21 28 -4 0 9 -7 16 -16 16 -9 0 -14 -5 -12
-12z"/>
<path d="M4262 1298 c-18 -18 -15 -144 4 -173 9 -14 23 -25 30 -25 19 0 18 26
-1 34 -13 5 -15 20 -13 78 l3 73 33 -3 c24 -3 32 0 32 12 0 20 -69 23 -88 4z"/>
<path d="M6670 1296 c0 -11 9 -16 26 -16 31 0 28 23 -4 28 -15 2 -22 -2 -22
-12z"/>
<path d="M8180 1295 c0 -8 7 -15 15 -15 8 0 15 -7 15 -15 0 -12 -15 -15 -75
-15 -60 0 -75 -3 -75 -15 0 -12 17 -15 90 -15 83 0 90 2 90 20 0 32 -22 70
-42 70 -10 0 -18 -7 -18 -15z"/>
<path d="M5060 1276 c0 -17 5 -26 16 -26 10 0 14 7 12 22 -5 32 -28 35 -28 4z"/>
<path d="M5166 1275 c-10 -14 -27 -25 -37 -25 -11 0 -19 -7 -19 -15 0 -8 9
-15 20 -15 11 0 20 7 20 15 0 10 10 15 30 15 25 0 30 4 30 25 0 14 -6 25 -13
25 -7 0 -21 -11 -31 -25z"/>
<path d="M4370 1265 c0 -19 49 -23 110 -9 23 6 24 7 5 14 -11 5 -41 9 -67 9
-36 1 -48 -3 -48 -14z"/>
<path d="M7322 1268 c-14 -14 -16 -48 -3 -48 5 0 13 -9 16 -20 3 -11 13 -20
21 -20 10 0 14 13 14 50 0 41 -3 50 -18 50 -10 0 -23 -5 -30 -12z"/>
<path d="M8720 1269 c0 -5 5 -9 10 -9 6 0 10 -6 10 -13 0 -19 20 -36 36 -30
24 9 15 28 -21 45 -19 8 -35 12 -35 7z"/>
<path d="M8817 1274 c-11 -12 3 -24 29 -24 15 0 24 6 24 15 0 15 -40 21 -53 9z"/>
<path d="M8420 1220 c0 -29 4 -40 13 -37 6 2 12 19 12 37 0 18 -6 35 -12 38
-9 2 -13 -9 -13 -38z"/>
<path d="M6770 1210 c0 -5 24 -36 54 -67 43 -46 56 -55 61 -42 4 12 -10 33
-45 68 -49 50 -70 62 -70 41z"/>
<path d="M4850 1185 c0 -16 6 -25 15 -25 9 0 15 9 15 25 0 16 -6 25 -15 25 -9
0 -15 -9 -15 -25z"/>
<path d="M7281 1181 c-6 -11 -29 -28 -51 -38 -22 -10 -40 -24 -40 -30 0 -18
49 -16 56 2 4 8 10 15 15 15 12 0 49 37 49 49 0 20 -19 21 -29 2z"/>
<path d="M8510 1160 c0 -21 33 -60 50 -60 16 0 12 27 -5 34 -8 3 -15 15 -15
26 0 11 -7 20 -15 20 -8 0 -15 -9 -15 -20z"/>
<path d="M7370 1151 c0 -11 18 -33 39 -50 38 -30 42 -31 141 -31 77 0 101 3
98 13 -3 8 -35 13 -104 15 -99 3 -99 3 -130 37 -35 40 -44 43 -44 16z"/>
<path d="M5210 1149 c0 -7 -8 -18 -17 -25 -10 -7 -14 -16 -10 -21 5 -4 15 1
23 11 11 16 16 17 29 6 19 -16 41 0 32 24 -7 18 -57 22 -57 5z"/>
<path d="M7688 1139 c-10 -10 -18 -23 -18 -29 0 -16 27 -12 34 5 4 12 10 13
25 6 21 -12 31 -5 31 21 0 25 -49 23 -72 -3z"/>
<path d="M8384 1145 c-4 -8 -15 -15 -25 -15 -10 0 -19 -7 -19 -15 0 -8 9 -15
20 -15 21 0 60 33 60 50 0 16 -30 12 -36 -5z"/>
<path d="M4890 1141 c0 -20 13 -41 25 -41 7 0 18 -7 25 -15 11 -13 34 -15 119
-13 141 4 135 22 -9 26 -82 2 -110 6 -110 16 0 7 -11 18 -25 24 -14 6 -25 8
-25 3z"/>
<path d="M2083 1124 c-7 -18 17 -38 31 -24 11 11 1 40 -14 40 -6 0 -13 -7 -17
-16z"/>
<path d="M3520 1121 c0 -26 17 -36 36 -21 11 10 12 16 3 26 -17 20 -39 17 -39
-5z"/>
<path d="M4008 1132 c-27 -6 -22 -32 6 -32 14 0 27 4 30 9 8 13 -16 28 -36 23z"/>
<path d="M2550 1115 c0 -9 9 -15 25 -15 16 0 25 6 25 15 0 9 -9 15 -25 15 -16
0 -25 -6 -25 -15z"/>
<path d="M2150 1086 c0 -12 30 -15 163 -18 177 -3 187 -2 187 18 0 11 -32 14
-175 14 -145 0 -175 -2 -175 -14z"/>
<path d="M3590 1085 c0 -13 23 -15 175 -13 237 4 238 22 3 26 -155 2 -178 0
-178 -13z"/>
<path d="M4345 1090 c-3 -5 0 -12 7 -15 26 -10 303 0 301 10 -4 14 -299 19
-308 5z"/>
<path d="M6345 1090 c-3 -5 0 -12 7 -15 26 -10 303 0 301 10 -4 14 -299 19
-308 5z"/>
<path d="M6920 1085 c0 -13 17 -15 128 -13 167 4 165 22 -3 26 -108 2 -125 0
-125 -13z"/>
<path d="M8007 1093 c-20 -19 7 -23 158 -23 140 0 165 2 165 15 0 13 -24 15
-158 15 -87 0 -162 -3 -165 -7z"/>
<path d="M8580 1085 c0 -13 21 -15 130 -15 109 0 130 2 130 15 0 13 -21 15
-130 15 -109 0 -130 -2 -130 -15z"/>
</g>
</svg>
